<?xml version="1.0" encoding="UTF-8"?>
<svg id="Layer_2" data-name="Layer 2" xmlns="http://www.w3.org/2000/svg" viewBox="0 0 578.4 841.6">
  <defs>
    <style>
      .cls-1, .cls-2 {
        fill: none;
        stroke: #a2a2a2;
        stroke-miterlimit: 10;
        stroke-width: 3px;
      }

      .cls-3 {
        fill: #222326;
      }

      .cls-4 {
        fill: #a2a2a2;
      }

      .cls-2 {
        stroke-dasharray: 0 0 7.94 7.94;
      }
    </style>
  </defs>
  <g id="Layer_3" data-name="Layer 3">
    <g>
      <g>
        <line class="cls-1" x1="1.5" x2="1.5" y2="4"/>
        <line class="cls-2" x1="1.5" y1="11.94" x2="1.5" y2="833.63"/>
        <line class="cls-1" x1="1.5" y1="837.6" x2="1.5" y2="841.6"/>
      </g>
      <g>
        <line class="cls-1" x1="304.14" x2="304.14" y2="4"/>
        <line class="cls-2" x1="304.14" y1="11.94" x2="304.14" y2="833.63"/>
        <line class="cls-1" x1="304.14" y1="837.6" x2="304.14" y2="841.6"/>
      </g>
      <g>
        <line class="cls-1" x1="520.31" x2="520.31" y2="4"/>
        <line class="cls-2" x1="520.31" y1="11.94" x2="520.31" y2="833.63"/>
        <line class="cls-1" x1="520.31" y1="837.6" x2="520.31" y2="841.6"/>
      </g>
      <g>
        <line class="cls-1" x1="576.9" x2="576.9" y2="4"/>
        <line class="cls-2" x1="576.9" y1="11.94" x2="576.9" y2="833.63"/>
        <line class="cls-1" x1="576.9" y1="837.6" x2="576.9" y2="841.6"/>
      </g>
      <g>
        <path class="cls-1" d="M574.27,483.44c-6.99,0-27.17,0-51.32,0"/>
        <path class="cls-4" d="M559.3,472.92c-.33,.51-.17,1.19,.34,1.51l14.13,9-14.13,9c-.51,.33-.66,1-.34,1.51,.33,.51,1.01,.66,1.51,.34l15.58-9.92c.32-.2,.51-.55,.51-.92s-.19-.72-.51-.92l-15.58-9.92c-.18-.12-.39-.17-.59-.17-.36,0-.72,.18-.92,.51Z"/>
        <path class="cls-4" d="M537.91,472.92c.33,.51,.17,1.19-.34,1.51l-14.13,9,14.13,9c.51,.33,.66,1,.34,1.51-.33,.51-1.01,.66-1.51,.34l-15.58-9.92c-.32-.2-.51-.55-.51-.92s.19-.72,.51-.92l15.58-9.92c.18-.12,.39-.17,.59-.17,.36,0,.72,.18,.92,.51Z"/>
      </g>
      <g>
        <path class="cls-1" d="M5.13,483.44H90.92"/>
        <path class="cls-4" d="M20.1,493.95c.33-.51,.17-1.19-.34-1.51l-14.13-9,14.13-9c.51-.33,.66-1,.34-1.51-.33-.51-1.01-.66-1.51-.34l-15.58,9.92c-.32,.2-.51,.55-.51,.92s.19,.72,.51,.92l15.58,9.92c.18,.12,.39,.17,.59,.17,.36,0,.72-.18,.92-.51Z"/>
      </g>
      <g>
        <path class="cls-1" d="M299.65,483.44c-9.59,0-44.34,0-85.79,0"/>
        <path class="cls-4" d="M284.67,472.92c-.33,.51-.17,1.19,.34,1.51l14.13,9-14.13,9c-.51,.33-.66,1-.34,1.51,.33,.51,1.01,.66,1.51,.34l15.58-9.92c.32-.2,.51-.55,.51-.92s-.19-.72-.51-.92l-15.58-9.92c-.18-.12-.39-.17-.59-.17-.36,0-.72,.18-.92,.51Z"/>
      </g>
      <g>
        <path d="M105.7,486.55c0-3.84,2.29-6.55,6.04-8.14l-.05-.14c-3.37-1.59-4.82-4.21-4.82-6.83,0-4.82,4.07-8.1,9.41-8.1,5.9,0,8.84,3.7,8.84,7.49,0,2.57-1.26,5.33-5.01,7.11v.14c3.79,1.5,6.13,4.17,6.13,7.86,0,5.29-4.54,8.84-10.34,8.84-6.37,0-10.2-3.79-10.2-8.24Zm16.38-.19c0-3.7-2.57-5.48-6.69-6.65-3.56,1.03-5.48,3.37-5.48,6.27-.14,3.09,2.2,5.8,6.08,5.8s6.08-2.29,6.08-5.43Zm-11.33-15.21c0,3.04,2.29,4.68,5.8,5.62,2.62-.89,4.63-2.76,4.63-5.52,0-2.43-1.45-4.96-5.15-4.96-3.42,0-5.29,2.25-5.29,4.87Z"/>
        <path d="M148.24,467.31h-11.61l-1.17,7.82c.7-.09,1.36-.19,2.48-.19,2.34,0,4.68,.51,6.55,1.64,2.39,1.36,4.35,3.98,4.35,7.81,0,5.94-4.73,10.39-11.33,10.39-3.32,0-6.13-.94-7.58-1.87l1.03-3.13c1.26,.75,3.74,1.68,6.5,1.68,3.88,0,7.21-2.53,7.21-6.6-.05-3.93-2.67-6.74-8.75-6.74-1.73,0-3.09,.19-4.21,.33l1.97-14.6h14.55v3.46Z"/>
        <path d="M155.41,479.01c0-2.9-.09-5.24-.19-7.39h3.7l.19,3.88h.09c1.68-2.76,4.35-4.4,8.05-4.4,5.48,0,9.59,4.63,9.59,11.51,0,8.14-4.96,12.17-10.3,12.17-3,0-5.62-1.31-6.97-3.56h-.09v12.31h-4.07v-24.52Zm4.07,6.04c0,.61,.09,1.17,.19,1.69,.75,2.85,3.23,4.82,6.18,4.82,4.35,0,6.88-3.56,6.88-8.75,0-4.54-2.39-8.42-6.74-8.42-2.81,0-5.43,2.01-6.22,5.1-.14,.51-.28,1.12-.28,1.68v3.88Z"/>
        <path d="M183.3,471.62l3.23,4.87c.84,1.26,1.54,2.43,2.29,3.7h.14c.75-1.36,1.5-2.53,2.25-3.74l3.18-4.82h4.45l-7.72,10.95,7.96,11.7h-4.68l-3.32-5.1c-.89-1.31-1.64-2.57-2.43-3.93h-.09c-.75,1.36-1.54,2.57-2.39,3.93l-3.28,5.1h-4.54l8.05-11.56-7.67-11.09h4.59Z"/>
      </g>
      <g>
        <path d="M413.76,467.43h-.09l-5.29,2.86-.8-3.14,6.65-3.56h3.51v30.42h-3.98v-26.58Z"/>
        <path d="M446.98,467.06h-11.61l-1.17,7.82c.7-.09,1.36-.19,2.48-.19,2.34,0,4.68,.51,6.55,1.64,2.39,1.36,4.35,3.98,4.35,7.81,0,5.94-4.73,10.39-11.33,10.39-3.32,0-6.13-.94-7.58-1.87l1.03-3.13c1.26,.75,3.74,1.68,6.5,1.68,3.88,0,7.21-2.53,7.21-6.6-.05-3.93-2.67-6.74-8.75-6.74-1.73,0-3.09,.19-4.21,.33l1.97-14.6h14.55v3.46Z"/>
        <path d="M454.14,478.76c0-2.9-.09-5.24-.19-7.39h3.7l.19,3.88h.09c1.68-2.76,4.35-4.4,8.05-4.4,5.48,0,9.59,4.63,9.59,11.51,0,8.14-4.96,12.17-10.3,12.17-3,0-5.62-1.31-6.97-3.56h-.09v12.31h-4.07v-24.52Zm4.07,6.04c0,.61,.09,1.17,.19,1.69,.75,2.85,3.23,4.82,6.18,4.82,4.35,0,6.88-3.56,6.88-8.75,0-4.54-2.39-8.42-6.74-8.42-2.81,0-5.43,2.01-6.22,5.1-.14,.51-.28,1.12-.28,1.68v3.88Z"/>
        <path d="M482.04,471.36l3.23,4.87c.84,1.26,1.54,2.43,2.29,3.7h.14c.75-1.36,1.5-2.53,2.25-3.74l3.18-4.82h4.45l-7.72,10.95,7.96,11.7h-4.68l-3.32-5.1c-.89-1.31-1.64-2.57-2.43-3.93h-.09c-.75,1.36-1.54,2.57-2.39,3.93l-3.28,5.1h-4.54l8.05-11.56-7.67-11.09h4.59Z"/>
      </g>
      <g>
        <path class="cls-3" d="M85.74,387.09c-.1-.23-.2-.47-.27-.7-.07-.27-.13-.53-.2-.83-.23,.27-.53,.5-.8,.73-.3,.23-.63,.43-1,.6-.4,.17-.8,.3-1.23,.4-.47,.1-.97,.13-1.47,.13-.8,0-1.57-.1-2.33-.37-.67-.23-1.3-.57-1.83-1.03-.5-.43-.9-.97-1.2-1.57-.3-.63-.43-1.3-.43-1.97,0-1.73,.63-3.1,1.93-4.03,1.3-.97,3.23-1.43,5.8-1.43h2.37v-.97c.03-.7-.27-1.4-.77-1.9-.53-.47-1.27-.7-2.23-.7-.87,0-1.5,.17-1.9,.57s-.63,.93-.6,1.5h-4.23c0-.7,.17-1.37,.47-2,.33-.63,.8-1.23,1.37-1.67,.67-.5,1.4-.9,2.2-1.13,.97-.3,1.97-.43,2.97-.43,.93,0,1.87,.1,2.8,.37,.8,.23,1.57,.6,2.23,1.1,.63,.47,1.13,1.1,1.47,1.8,.37,.8,.57,1.67,.53,2.53v7.1c0,.73,.03,1.47,.17,2.2,.1,.53,.27,1.03,.5,1.5v.2h-4.3Zm-4.03-2.97c.4,0,.8-.03,1.2-.13,.33-.1,.7-.23,1-.4,.27-.13,.53-.33,.77-.57,.2-.2,.37-.4,.5-.63v-2.83h-2.17c-.57,0-1.13,.07-1.7,.2-.4,.1-.8,.27-1.13,.53-.3,.2-.53,.5-.67,.83s-.23,.7-.2,1.03c0,.53,.2,1.07,.6,1.43,.37,.33,.97,.53,1.8,.53Z"/>
        <path class="cls-3" d="M108.39,370.26c.6,0,1.2,.03,1.77,.13,.47,.07,.9,.17,1.33,.27l-.63,4.26c-.57-.13-1.13-.23-1.7-.3s-1.1-.1-1.67-.1c-1-.07-2,.17-2.87,.67-.73,.47-1.3,1.17-1.6,1.97v9.93h-4.23v-16.49h3.96l.2,2.7c.63-.9,1.47-1.67,2.4-2.2,.9-.57,1.93-.83,3.03-.83Z"/>
        <path class="cls-3" d="M128.18,381.92l1.43-11.33h3.9l-2.97,16.52h-3.7l-2.17-10.53-2.1,10.49h-3.73l-2.97-16.49h3.86l1.43,11.39,2.07-11.39h2.83l2.1,11.33Z"/>
        <path class="cls-3" d="M146.74,387.39c-1.2,0-2.37-.2-3.46-.63-1-.4-1.9-.97-2.67-1.7-.73-.73-1.33-1.57-1.7-2.53-.4-1-.6-2.07-.6-3.13v-.6c0-1.17,.2-2.37,.6-3.46,.37-1,.93-1.93,1.67-2.7,.7-.77,1.57-1.37,2.53-1.77,2.03-.83,4.33-.83,6.36-.03,.9,.37,1.7,.93,2.37,1.67s1.17,1.63,1.47,2.57c.33,1.07,.53,2.2,.5,3.33v1.8h-11.23c.07,.53,.23,1.07,.5,1.53,.5,.93,1.3,1.63,2.3,1.97,.53,.2,1.07,.27,1.63,.27,.43,0,.83-.03,1.23-.13,.4-.07,.8-.2,1.17-.37s.73-.37,1.07-.6c.33-.23,.6-.5,.87-.83l2.13,2.3c-.3,.4-.63,.77-1.03,1.1-.47,.4-.97,.7-1.5,.97-.6,.3-1.27,.5-1.93,.67-.73,.23-1.5,.33-2.27,.33Zm-.5-13.69c-.47,0-.9,.07-1.3,.27-.4,.17-.77,.4-1.03,.73-.3,.33-.57,.7-.77,1.13-.2,.47-.37,.97-.47,1.47h6.96v-.33c-.03-.43-.1-.87-.27-1.27-.13-.4-.37-.73-.67-1.03-.3-.3-.67-.53-1.03-.7-.47-.17-.93-.27-1.43-.27Z"/>
        <path class="cls-3" d="M170.16,387.09c-.1-.23-.2-.47-.27-.7-.07-.27-.13-.57-.17-.83-.27,.27-.53,.5-.83,.73s-.63,.43-1,.6c-.4,.17-.8,.3-1.23,.4-.47,.1-.97,.13-1.47,.13-.8,0-1.57-.1-2.33-.37-.67-.23-1.3-.57-1.83-1.03-1.03-.87-1.63-2.17-1.63-3.53,0-1.73,.63-3.1,1.93-4.03,1.3-.97,3.23-1.43,5.8-1.43h2.37v-.97c.03-.7-.27-1.4-.77-1.9-.53-.47-1.27-.7-2.23-.7-.87,0-1.5,.17-1.9,.57s-.63,.93-.6,1.5h-4.23c0-.7,.17-1.37,.47-2,.33-.63,.8-1.23,1.37-1.67,.67-.5,1.4-.9,2.2-1.13,.97-.3,1.97-.43,2.97-.43,.93,0,1.87,.1,2.8,.37,.8,.23,1.57,.6,2.23,1.1,.63,.47,1.13,1.1,1.47,1.8,.37,.8,.57,1.67,.53,2.53v7.1c0,.73,.03,1.47,.17,2.2,.1,.53,.27,1.03,.5,1.5v.2h-4.3Zm-4.03-2.97c.4,0,.8-.03,1.2-.13,.33-.1,.67-.23,1-.4,.27-.13,.53-.33,.77-.57,.2-.2,.37-.4,.5-.63v-2.83h-2.17c-.57,0-1.13,.07-1.7,.2-.4,.1-.8,.27-1.13,.53-.3,.2-.53,.5-.67,.83s-.23,.7-.2,1.03c0,.53,.2,1.07,.6,1.43,.37,.33,.97,.53,1.8,.53Z"/>
        <path class="cls-3" d="M187.98,382.19l.2,1.2,.2-1.13,3.63-11.66h4.43l-6.26,16.49h-4l-6.3-16.49h4.43l3.66,11.59Z"/>
        <path class="cls-3" d="M210.07,387.39c-1.2,0-2.37-.2-3.46-.63-1-.4-1.9-.97-2.67-1.7-.73-.73-1.33-1.57-1.73-2.53-.4-1-.6-2.07-.6-3.13v-.6c0-1.17,.2-2.37,.6-3.46,.37-1,.93-1.93,1.67-2.7,.7-.77,1.57-1.37,2.53-1.77,2.03-.83,4.33-.83,6.36-.03,.9,.37,1.7,.93,2.37,1.67s1.17,1.63,1.47,2.57c.33,1.07,.5,2.2,.5,3.33v1.8h-11.19c.07,.53,.23,1.07,.5,1.53,.5,.93,1.3,1.63,2.27,1.97,.53,.2,1.07,.27,1.63,.27,.43,0,.83-.03,1.23-.13,.4-.07,.8-.2,1.17-.37s.73-.37,1.07-.6c.33-.23,.6-.5,.87-.83l2.13,2.3c-.3,.4-.63,.77-1.03,1.1-.47,.4-.97,.7-1.5,.97-.6,.3-1.27,.5-1.93,.67-.7,.23-1.47,.33-2.23,.33Zm-.5-13.69c-.47,0-.9,.07-1.3,.27-.4,.17-.77,.4-1.03,.73-.3,.33-.57,.7-.77,1.13-.2,.47-.37,.97-.47,1.47h6.96v-.33c-.03-.43-.1-.87-.27-1.27-.13-.4-.37-.73-.67-1.03-.3-.3-.67-.53-1.03-.7-.47-.17-.97-.27-1.43-.27Z"/>
        <path class="cls-3" d="M227.46,384.62c0-.37,.07-.77,.2-1.1,.13-.33,.33-.63,.57-.9,.27-.27,.57-.47,.93-.6,.8-.3,1.67-.3,2.47,0,.33,.13,.67,.33,.93,.6s.43,.57,.57,.9c.13,.37,.2,.73,.2,1.1s-.07,.73-.2,1.07c-.13,.33-.33,.63-.57,.87-.27,.27-.57,.47-.93,.6-.8,.3-1.67,.3-2.47,0-.33-.13-.67-.33-.93-.6-.27-.23-.47-.53-.57-.87-.13-.33-.2-.7-.2-1.07Z"/>
        <path class="cls-3" d="M243.69,378.69c0-1.13,.17-2.27,.53-3.33,.33-.97,.83-1.9,1.53-2.67,.67-.77,1.5-1.37,2.43-1.77,2.13-.87,4.5-.87,6.63,0,.93,.4,1.77,1,2.47,1.77,.67,.77,1.2,1.7,1.53,2.67,.37,1.07,.53,2.2,.53,3.33v.33c0,1.13-.17,2.27-.53,3.36-.33,.97-.83,1.9-1.5,2.67s-1.5,1.37-2.43,1.77c-1.03,.43-2.17,.67-3.3,.63-1.13,.03-2.27-.2-3.33-.63-.93-.4-1.77-1-2.47-1.77-.67-.77-1.2-1.7-1.53-2.67-.37-1.07-.53-2.2-.53-3.36l-.03-.33Zm4.23,.33c0,.67,.07,1.3,.2,1.93,.1,.57,.33,1.1,.63,1.6,.57,.97,1.63,1.53,2.73,1.47,.57,.03,1.1-.13,1.6-.4,.43-.27,.83-.63,1.1-1.1,.3-.5,.5-1.03,.63-1.6,.13-.63,.2-1.3,.2-1.93v-.33c0-.63-.07-1.27-.2-1.9-.13-.57-.33-1.1-.63-1.57-.27-.43-.63-.83-1.1-1.07-1.5-.87-3.43-.4-4.33,1.07-.3,.5-.5,1.03-.63,1.6-.13,.63-.2,1.27-.2,1.9v.33Z"/>
        <path class="cls-3" d="M277.23,370.26c.6,0,1.2,.03,1.77,.13,.47,.07,.9,.17,1.33,.27l-.63,4.26c-.57-.13-1.13-.23-1.73-.3-.57-.07-1.1-.1-1.67-.1-1-.03-2,.2-2.87,.7-.73,.47-1.3,1.17-1.63,1.97v9.89h-4.23v-16.49h3.96l.2,2.7c.63-.9,1.47-1.67,2.43-2.23,.93-.53,2-.8,3.07-.8Z"/>
        <path class="cls-3" d="M286.06,378.72c0-1.17,.13-2.33,.47-3.43,.27-.97,.73-1.87,1.33-2.67,.57-.73,1.27-1.33,2.1-1.73,.87-.43,1.83-.63,2.8-.63,.87-.03,1.7,.13,2.5,.5,.7,.33,1.3,.8,1.77,1.4l.17-1.57h3.86v15.99c.03,1.03-.17,2.07-.57,3-.37,.83-.9,1.6-1.6,2.2-.73,.63-1.57,1.1-2.47,1.37-1.03,.33-2.1,.47-3.2,.47-.53,0-1.07-.07-1.6-.17-.57-.1-1.13-.27-1.7-.47-.57-.2-1.1-.5-1.6-.8-.5-.33-.93-.73-1.27-1.2l1.9-2.6c.5,.6,1.13,1.07,1.83,1.4s1.43,.5,2.2,.47c1.2,0,2.13-.33,2.8-.97s1-1.53,1-2.7v-.93c-.5,.53-1.1,.97-1.73,1.27-.73,.33-1.53,.47-2.3,.47-.97,0-1.9-.2-2.77-.63-.83-.43-1.53-1.03-2.1-1.73-.6-.8-1.07-1.7-1.33-2.67-.33-1.07-.47-2.2-.47-3.33v-.3h-.03Zm4.23,.33c0,.63,.07,1.3,.2,1.93,.13,.57,.33,1.07,.63,1.57,.27,.43,.63,.8,1.07,1.03,.47,.27,1,.4,1.57,.4,.63,.03,1.27-.13,1.83-.43,.5-.3,.87-.7,1.17-1.2v-7c-.27-.5-.67-.9-1.17-1.2-.57-.3-1.17-.43-1.8-.43-.53,0-1.1,.13-1.57,.4-.43,.27-.83,.63-1.1,1.07-.3,.5-.53,1.03-.67,1.6-.13,.63-.23,1.3-.2,1.93l.03,.33Z"/>
      </g>
      <g>
        <path class="cls-3" d="M31.62,388.3c-.11-.25-.22-.51-.29-.76-.07-.29-.15-.62-.22-.91-.25,.29-.58,.54-.87,.8-.33,.25-.69,.47-1.09,.65-.44,.18-.91,.33-1.34,.44-.51,.11-1.05,.15-1.56,.15-.87,0-1.71-.11-2.54-.4-.73-.25-1.42-.62-2-1.13-1.13-.94-1.78-2.36-1.78-3.85,0-1.89,.69-3.38,2.11-4.4,1.42-1.05,3.52-1.56,6.32-1.56h2.62v-1.05c.04-.76-.29-1.53-.84-2.07-.58-.51-1.38-.76-2.43-.76-.94,0-1.63,.18-2.07,.62s-.69,1.02-.65,1.63h-4.61c0-.76,.18-1.49,.51-2.18,.36-.69,.87-1.34,1.49-1.82,.73-.54,1.53-.98,2.36-1.24,1.05-.33,2.14-.47,3.23-.47,1.02,0,2.03,.11,3.05,.4,.87,.25,1.71,.65,2.43,1.2,.69,.51,1.27,1.2,1.63,2,.4,.87,.62,1.82,.58,2.76v7.74c0,.8,.04,1.6,.18,2.4,.11,.58,.29,1.13,.54,1.63v.18h-4.76Zm-4.4-3.23c.44,0,.87-.04,1.27-.15,.36-.11,.73-.25,1.09-.44,.29-.15,.58-.36,.84-.62,.22-.22,.4-.44,.54-.69v-3.09h-2.36c-.62,0-1.24,.07-1.85,.22-.44,.11-.87,.29-1.24,.58-.33,.22-.58,.54-.73,.91s-.25,.76-.22,1.13c0,.58,.22,1.16,.65,1.56,.44,.36,1.09,.58,2,.58Z"/>
        <path class="cls-3" d="M27.87,403.93c-13.32,0-24.17-10.84-24.17-24.17s10.84-24.17,24.17-24.17,24.17,10.84,24.17,24.17-10.84,24.17-24.17,24.17Zm0-44.83c-11.39,0-20.66,9.27-20.66,20.66s9.27,20.66,20.66,20.66,20.66-9.27,20.66-20.66-9.27-20.66-20.66-20.66Z"/>
      </g>
      <g>
        <path class="cls-3" d="M552.51,390.83c-.12-.27-.23-.55-.31-.82-.08-.31-.16-.67-.23-.98-.27,.31-.63,.59-.94,.86-.35,.27-.74,.51-1.17,.7-.47,.2-.98,.35-1.45,.47-.55,.12-1.14,.16-1.68,.16-.94,0-1.84-.12-2.74-.43-.78-.27-1.53-.67-2.15-1.21-1.21-1.02-1.92-2.54-1.92-4.15,0-2.04,.74-3.64,2.27-4.74,1.53-1.14,3.8-1.68,6.81-1.68h2.82v-1.14c.04-.82-.31-1.64-.9-2.23-.63-.55-1.49-.82-2.62-.82-1.02,0-1.76,.2-2.23,.67s-.74,1.1-.7,1.76h-4.97c0-.82,.2-1.6,.55-2.35,.39-.74,.94-1.45,1.6-1.96,.78-.59,1.64-1.06,2.54-1.33,1.14-.35,2.31-.51,3.48-.51,1.1,0,2.19,.12,3.29,.43,.94,.27,1.84,.7,2.62,1.29,.74,.55,1.37,1.29,1.76,2.15,.43,.94,.67,1.96,.63,2.97v8.34c0,.86,.04,1.72,.2,2.58,.12,.63,.31,1.21,.59,1.76v.2h-5.13Zm-4.74-3.48c.47,0,.94-.04,1.37-.16,.39-.12,.78-.27,1.17-.47,.31-.16,.63-.39,.9-.67,.23-.23,.43-.47,.59-.74v-3.33h-2.54c-.67,0-1.33,.08-2,.23-.47,.12-.94,.31-1.33,.63-.35,.23-.63,.59-.78,.98s-.27,.82-.23,1.21c0,.63,.23,1.25,.7,1.68,.47,.39,1.17,.63,2.15,.63Z"/>
        <path class="cls-3" d="M548.48,407.67c-14.36,0-26.04-11.68-26.04-26.04s11.68-26.04,26.04-26.04,26.04,11.68,26.04,26.04-11.68,26.04-26.04,26.04Zm0-48.3c-12.27,0-22.26,9.99-22.26,22.26s9.99,22.26,22.26,22.26,22.26-9.99,22.26-22.26-9.99-22.26-22.26-22.26Z"/>
      </g>
    </g>
  </g>
</svg>