<svg viewBox="0 0 187 47" fill="none" xmlns="http://www.w3.org/2000/svg">
<g clip-path="url(#clip0_30_1265)">
<path d="M66.6943 21.5653C67.7851 22.0019 68.955 22.2202 70.2041 22.2202C71.4927 22.2202 72.7299 21.9354 73.916 21.3656C75.102 20.7959 76.0663 20.0425 76.8091 19.1055L75.0907 17.572C74.5293 18.2434 73.8356 18.8073 73.0094 19.2637C72.1832 19.7202 71.2484 19.9485 70.205 19.9487C69.003 19.9487 67.9179 19.6852 66.9498 19.1583C65.9816 18.6314 65.2168 17.8822 64.6553 16.9107C64.0939 15.9394 63.8132 14.8332 63.8132 13.5921C63.8132 11.7891 64.4081 10.2788 65.5979 9.0613C66.7876 7.84377 68.2525 7.2351 69.9926 7.23528C70.8783 7.23536 71.7545 7.41669 72.5657 7.76785C73.396 8.12326 74.068 8.57749 74.5816 9.13054L76.2063 7.55009C75.4631 6.74675 74.5441 6.11463 73.4492 5.65372C72.3565 5.19388 71.1803 4.95892 69.9926 4.96319C68.3799 4.96319 66.915 5.34326 65.5979 6.10341C64.2996 6.84618 63.2315 7.92491 62.5089 9.22315C61.7654 10.5421 61.3938 11.9975 61.3942 13.5893C61.3942 14.8147 61.6175 15.9618 62.0641 17.0309C62.5107 18.0999 63.1211 19.013 63.8952 19.7702C64.6703 20.5297 65.6033 21.1281 66.6943 21.5653Z" fill="#6f3efc"/>
<path d="M87.9007 12.1587C86.7821 11.0391 85.3769 10.4792 83.6849 10.479C81.993 10.4788 80.5858 11.0387 79.4635 12.1587C78.3415 13.2789 77.7805 14.678 77.7805 16.3558C77.7805 18.0337 78.3419 19.4307 79.4646 20.5468C80.5862 21.6624 81.993 22.2202 83.6849 22.2202C85.3769 22.2202 86.7821 21.6622 87.9007 20.5463C89.0191 19.4302 89.5785 18.0332 89.5789 16.3553C89.5792 14.6774 89.0199 13.2786 87.9007 12.1587ZM86.2643 18.9956C85.5881 19.7096 84.7284 20.0666 83.6849 20.0666C82.6414 20.0666 81.7814 19.7096 81.1047 18.9956C80.4286 18.2814 80.0906 17.4015 80.0906 16.3558C80.0906 15.3102 80.4286 14.4283 81.1047 13.7103C81.7808 12.9924 82.6405 12.6334 83.6838 12.6332C84.7271 12.633 85.5872 12.992 86.2643 13.7103C86.9404 14.4283 87.2784 15.3103 87.2784 16.3561C87.2784 17.402 86.9404 18.2818 86.2643 18.9956Z" fill="#6f3efc"/>
<path d="M109.419 12.3755C108.938 11.7837 108.328 11.3073 107.634 10.9822C106.925 10.6465 106.149 10.4743 105.363 10.4788C104.414 10.4788 103.602 10.6427 102.926 10.9705C102.25 11.2983 101.612 11.7589 101.01 12.3521C100.524 11.7773 99.9197 11.3105 99.2376 10.9822C98.5457 10.6468 97.7927 10.479 96.9786 10.4788C96.2908 10.4756 95.6107 10.6214 94.9863 10.906C94.3616 11.1913 93.9071 11.4899 93.6225 11.8018V10.7133H91.3931V21.9867H93.7056V14.2368C94.0848 13.7919 94.5512 13.4135 95.1049 13.1016C95.6532 12.7905 96.2754 12.6288 96.9078 12.633C97.3335 12.6311 97.7545 12.7211 98.1412 12.8967C98.5154 13.0625 98.8475 13.3083 99.1136 13.6164C99.5563 14.1314 99.7776 14.8846 99.7776 15.876V21.9867H102.078V16.2272C102.078 15.4856 102.015 14.8221 101.889 14.2368C102.924 13.1678 104.082 12.6332 105.363 12.633C106.225 12.633 106.936 12.9608 107.497 13.6164C107.932 14.117 108.15 14.8702 108.15 15.876V21.9867H110.462V16.2272C110.462 15.2983 110.377 14.5354 110.207 13.9384C110.037 13.3414 109.774 12.8205 109.419 12.3755Z" fill="#6f3efc"/>
<path d="M130.939 12.3696C130.459 11.7781 129.849 11.3018 129.155 10.9766C128.446 10.6407 127.67 10.4685 126.884 10.473C125.935 10.473 125.123 10.6369 124.447 10.9647C123.771 11.2925 123.132 11.7531 122.531 12.3466C122.045 11.7717 121.44 11.3049 120.758 10.9766C120.066 10.6411 119.313 10.4732 118.499 10.473C117.812 10.4703 117.133 10.6166 116.509 10.9015C115.884 11.1869 115.43 11.4854 115.145 11.797V10.7069H112.916V21.9808H115.228V14.231C115.623 13.7737 116.097 13.3894 116.628 13.0958C117.177 12.7847 117.799 12.6229 118.431 12.6272C118.857 12.6253 119.278 12.7152 119.664 12.8905C120.039 13.0564 120.371 13.3023 120.637 13.6105C121.08 14.1256 121.301 14.8788 121.301 15.8701V21.9808H123.602V16.2213C123.602 15.4797 123.538 14.8163 123.412 14.231C124.447 13.162 125.606 12.6273 126.886 12.6272C127.748 12.6272 128.46 12.955 129.021 13.6105C129.456 14.1111 129.673 14.8643 129.673 15.8701V21.9808H131.986V16.2213C131.986 15.2925 131.901 14.5296 131.73 13.9326C131.56 13.3356 131.297 12.8146 130.939 12.3696Z" fill="#6f3efc"/>
<path d="M142.7 18.4569C142.305 18.9144 141.832 19.299 141.301 19.5927C140.752 19.9035 140.13 20.065 139.498 20.0607C139.07 20.0624 138.647 19.9726 138.258 19.7974C137.882 19.6327 137.548 19.3867 137.281 19.0776C136.847 18.5784 136.63 17.8291 136.63 16.8297V10.7068H134.329V16.4663C134.329 17.3951 134.414 18.16 134.584 18.7609C134.754 19.3618 135.017 19.8847 135.373 20.3297C135.853 20.9207 136.463 21.3952 137.158 21.7168C137.867 22.0489 138.644 22.2189 139.429 22.2144C140.132 22.2144 140.783 22.0816 141.38 21.8161C141.976 21.5506 142.44 21.262 142.771 20.9504V21.9794H145.013V10.7068H142.7V18.4569Z" fill="#6f3efc"/>
<path d="M155.932 11.0058C155.212 10.6516 154.418 10.469 153.614 10.473C152.87 10.473 152.208 10.6038 151.627 10.8654C151.046 11.127 150.566 11.4371 150.186 11.7959V10.7068H147.957V21.9808H150.269V14.2309C151.154 13.1619 152.245 12.6273 153.542 12.6271C154.002 12.6257 154.457 12.7278 154.871 12.9258C155.272 13.1113 155.625 13.3858 155.902 13.7279C156.353 14.2741 156.578 15.1481 156.578 16.3501V21.9808H158.891V16.4669C158.891 14.7427 158.515 13.4078 157.764 12.4622C157.269 11.8493 156.644 11.3519 155.932 11.0058Z" fill="#6f3efc"/>
<path d="M163.478 10.7075H161.165V21.9809H163.478V10.7075Z" fill="#6f3efc"/>
<path d="M162.303 5.1936C161.877 5.1936 161.519 5.33989 161.23 5.63245C160.941 5.92501 160.797 6.28209 160.797 6.7037C160.797 7.12493 160.942 7.47802 161.23 7.76298C161.519 8.04795 161.876 8.19043 162.303 8.19043C162.73 8.19043 163.092 8.04795 163.389 7.76298C163.685 7.47802 163.833 7.12493 163.833 6.7037C163.833 6.28228 163.685 5.9252 163.389 5.63245C163.092 5.3397 162.73 5.19342 162.303 5.1936Z" fill="#6f3efc"/>
<path d="M170.389 7.59351H168.076V10.7069H165.159V12.7554H168.076V17.9069C168.076 19.2338 168.385 20.2328 169.001 20.9037C169.776 21.7779 170.851 22.215 172.227 22.215C172.938 22.215 173.539 22.1369 174.03 21.9808L173.567 19.9206C173.227 20.0133 172.808 20.0597 172.31 20.0597C171.999 20.0606 171.69 20.0071 171.397 19.9017C171.104 19.7964 170.879 19.65 170.721 19.4626C170.5 19.2131 170.389 18.7331 170.389 18.0229V12.7559H174.03V10.7069H170.389V7.59351Z" fill="#6f3efc"/>
<path d="M184.569 10.7075L181.284 18.1412L177.715 10.7075H175.237L180.122 20.8104L177.039 27.7404H179.494L187 10.7075H184.569Z" fill="#6f3efc"/>
<path d="M65.1526 25.1787H62.7217V41.9658H72.6827V39.6831H65.1526V25.1787Z" fill="#6f3efc"/>
<path d="M82.8566 31.7345C81.8613 30.8838 80.6676 30.4584 79.2755 30.4583C78.2317 30.4583 77.3027 30.6963 76.4885 31.1724C75.6032 31.6875 74.8917 32.4013 74.354 33.3138C73.8163 34.2263 73.5475 35.2331 73.5475 36.334C73.5475 37.4345 73.8124 38.4357 74.3422 39.3375C74.872 40.2393 75.5796 40.9475 76.4649 41.4622C77.31 41.9539 78.2666 42.1998 79.3347 42.2C80.734 42.2 81.9078 41.7785 82.8561 40.9355V41.9644H85.0853V30.6924H82.8561L82.8566 31.7345ZM82.7721 38.4423C82.3992 38.9374 81.9165 39.3419 81.361 39.6248C80.8076 39.9056 80.2348 40.0461 79.6426 40.0461C78.5593 40.0461 77.6578 39.6832 76.9382 38.9573C76.2185 38.2315 75.8587 37.3574 75.8589 36.3351C75.8589 35.3206 76.2008 34.4465 76.8846 33.7129C77.5684 32.9792 78.448 32.6124 79.5231 32.6124C80.165 32.6071 80.7984 32.7579 81.3672 33.0515C81.9175 33.3318 82.3976 33.7297 82.7724 34.2162L82.7721 38.4423Z" fill="#6f3efc"/>
<path d="M96.6271 31.1725C95.8129 30.6966 94.884 30.4585 93.8404 30.4583C92.4881 30.4583 91.322 30.8642 90.3421 31.6759V24.9458H88.0298V41.9656H90.2604V40.9366C91.2092 41.7795 92.383 42.201 93.7818 42.2012C94.8489 42.2012 95.8055 41.9552 96.6516 41.4634C97.5367 40.9483 98.2442 40.2401 98.774 39.3387C99.3038 38.4373 99.5687 37.4361 99.5687 36.3352C99.5687 35.2346 99.2998 34.2279 98.7621 33.315C98.2244 32.4021 97.5128 31.6879 96.6271 31.1725ZM96.1763 38.9574C95.4568 39.6832 94.5553 40.0462 93.4719 40.0462C92.873 40.0445 92.2835 39.9 91.7534 39.6248C91.1978 39.3421 90.715 38.9376 90.3421 38.4423V34.2152C90.7169 33.7286 91.1971 33.3307 91.7475 33.0505C92.3163 32.7568 92.9495 32.606 93.5913 32.6114C94.6663 32.6114 95.5458 32.9782 96.2298 33.7118C96.9138 34.4455 97.2558 35.3195 97.2558 36.3341C97.2562 37.3575 96.8964 38.2319 96.1763 38.9574Z" fill="#6f3efc"/>
<path d="M108.722 36.6216C108.465 36.3836 108.135 36.1631 107.732 35.9603C107.379 35.7784 107.012 35.6238 106.635 35.4978C106.307 35.3927 105.93 35.2854 105.503 35.1758C105.218 35.1057 104.998 35.0472 104.844 35.0003C104.69 34.9534 104.511 34.891 104.305 34.8131C104.098 34.7351 103.944 34.655 103.843 34.5729C103.736 34.4876 103.646 34.3848 103.576 34.2689C103.5 34.1473 103.461 34.0073 103.463 33.8648C103.463 33.4356 103.663 33.0926 104.062 32.8358C104.461 32.5791 104.949 32.4504 105.527 32.4498C106.372 32.4498 107.19 32.7465 107.981 33.3398L109.167 31.7009C108.124 30.8737 106.863 30.4599 105.384 30.4597C104.866 30.4581 104.351 30.5311 103.854 30.6764C103.375 30.816 102.921 31.0294 102.508 31.3088C102.102 31.5858 101.775 31.9544 101.53 32.4148C101.285 32.8751 101.163 33.3975 101.162 33.9819C101.162 35.3396 102.036 36.3073 103.782 36.885C104.036 36.9712 104.368 37.0649 104.779 37.1662C105.189 37.2674 105.521 37.3552 105.775 37.4295C106.042 37.509 106.304 37.6068 106.558 37.7221C106.826 37.8433 107.025 37.9917 107.156 38.1671C107.287 38.3424 107.352 38.5552 107.352 38.8053C107.352 39.2267 107.152 39.5662 106.753 39.8237C106.354 40.0812 105.889 40.2099 105.36 40.2097C104.182 40.2097 103.055 39.7961 101.979 38.9688L100.794 40.643C102.09 41.6812 103.627 42.2004 105.407 42.2004C106.569 42.2004 107.567 41.8842 108.401 41.252C109.235 40.6198 109.652 39.7886 109.652 38.7583C109.657 38.3352 109.564 37.9167 109.379 37.5346C109.198 37.164 108.979 36.8597 108.722 36.6216Z" fill="#6f3efc"/>
<path d="M2.04325 23.4996C2.04325 13.3085 10.4419 5.01806 20.7647 5.01806H38.499C34.4516 1.8783 29.3521 0 23.8046 0H23.7962C10.6563 0.00472773 0.00478909 10.5197 0 23.4918C0 23.4946 0 23.4974 0 23.5001C0 36.0358 9.94441 46.2767 22.469 46.9613C22.9116 46.9853 23.3564 47 23.8052 47C29.3521 47 34.4516 45.122 38.4987 41.9819H20.7647C10.4419 41.9819 2.04325 33.6909 2.04325 23.4996Z" fill="#6f3efc"/>
<path d="M10.1341 23.4996C10.1341 17.7126 14.9029 13.0048 20.7645 13.0048H45.1043C44.1859 11.1937 43.0345 9.50721 41.6787 7.98706H23.8047C15.1404 7.98706 8.09082 14.946 8.09082 23.4996C8.09082 32.0531 15.1404 39.0132 23.8047 39.0132H41.6781C43.0338 37.4928 44.185 35.8061 45.1032 33.9948H20.7633C14.9026 33.9948 10.1341 29.2871 10.1341 23.4996Z" fill="#6f3efc"/>
<path d="M18.2267 23.4995C18.2274 22.8347 18.4953 22.1972 18.9715 21.7271C19.4477 21.257 20.0934 20.9926 20.7669 20.9919H47.4732C47.2888 19.2838 46.914 17.601 46.3556 15.9741H23.8046C19.6015 15.9741 16.1815 19.3503 16.1815 23.4995C16.1815 27.6488 19.6015 31.0258 23.8046 31.0258H46.3556C46.9144 29.3988 47.2893 27.7158 47.4737 26.0075H20.7675C20.0939 26.007 19.448 25.7426 18.9716 25.2724C18.4952 24.8022 18.2273 24.1646 18.2267 23.4995Z" fill="#6f3efc"/>
</g>
<defs>
<clipPath id="clip0_30_1265">
<rect width="187" height="47" fill="#6f3efc"/>
</clipPath>
</defs>
</svg>
