<svg viewBox="0 0 170 170" fill="none" xmlns="http://www.w3.org/2000/svg">
<g clip-path="url(#clip0_1_305)">
<path d="M145.761 18.9754L139.513 21.6414C136.192 23.0465 134.621 24.4516 134.087 26.4836L133.879 27.2834L111.541 36.7731C110.713 37.1262 110.331 38.0845 110.684 38.906L118.581 57.4243C118.927 58.2529 119.885 58.6348 120.714 58.289L143.044 48.7848L143.772 49.1955C145.602 50.2187 147.706 50.053 151.021 48.6479L157.275 45.989L145.761 18.9754ZM120.08 61.7837C118.134 61.7837 116.275 60.6452 115.468 58.7501L107.578 40.2246C106.49 37.6882 107.679 34.7484 110.215 33.6747L131.076 24.8047C132.322 21.4253 135.348 19.7392 138.187 18.5286L147.547 14.5511L161.706 47.7688L152.346 51.7463C149.5 52.9568 146.186 53.9656 142.893 52.5245L122.04 61.3946C121.398 61.6612 120.728 61.7837 120.08 61.7837Z" fill="#4D4D4D"/>
<path d="M135.616 35.1518C134.96 35.1518 134.333 34.7699 134.059 34.1214L130.903 26.7141C130.536 25.8494 130.939 24.8623 131.789 24.502C132.647 24.1345 133.641 24.5308 134.009 25.3883L137.165 32.8028C137.532 33.6603 137.136 34.6546 136.279 35.0221C136.062 35.1086 135.839 35.1518 135.616 35.1518Z" fill="#4D4D4D"/>
<path d="M65.4618 82.0097C63.401 82.0097 61.4482 80.8063 60.5908 78.8032L55.0641 65.8332C54.5093 64.5362 54.5021 63.1023 55.0281 61.7908C55.5541 60.4866 56.5629 59.4634 57.8527 58.9158L108.241 37.4865L109.567 40.5921L59.1785 62.0214C58.2129 62.4249 57.7662 63.549 58.1697 64.5073L63.7036 77.4774C64.1143 78.4429 65.2312 78.8897 66.1967 78.4789L116.585 57.0568L117.904 60.1624L67.5225 81.5845C66.8524 81.8728 66.1463 82.0097 65.4618 82.0097Z" fill="#4D4D4D"/>
<path d="M14.3599 82.4132C14.2879 82.4132 14.2086 82.4276 14.1438 82.4565L12.0181 83.3572C11.8308 83.4364 11.7443 83.5805 11.7155 83.6598C11.6867 83.739 11.6434 83.9048 11.7227 84.0849L17.3719 97.3432C17.4511 97.5305 17.5952 97.617 17.6817 97.6458C17.761 97.6818 17.9195 97.7179 18.1068 97.6458L20.2325 96.7379C20.5135 96.6226 20.6504 96.2912 20.5279 96.0101L19.865 94.4537L59.9928 77.3909L55.6695 67.2383L15.5344 84.3011L14.8787 82.7447C14.7851 82.5357 14.5761 82.4132 14.3599 82.4132ZM17.8835 101.061C17.3863 101.061 16.8891 100.968 16.4135 100.773C15.4408 100.384 14.677 99.6345 14.2663 98.669L8.6171 85.4107C8.19918 84.4452 8.18477 83.3788 8.58107 82.3988C8.97017 81.4261 9.72676 80.6623 10.6923 80.2516L12.8179 79.3509C13.7835 78.9329 14.8571 78.9257 15.8371 79.3148C16.255 79.495 16.6369 79.7255 16.9756 80.021L57.4492 62.8141L64.4314 79.1779L23.9506 96.3848C23.8857 97.8548 22.9994 99.231 21.5583 99.8507L19.4327 100.744C18.9355 100.953 18.4095 101.061 17.8835 101.061Z" fill="#4D4D4D"/>
<path d="M18.8704 89.4963C18.2075 89.4963 17.5878 89.1072 17.3068 88.4659L14.8785 82.7447C14.511 81.8944 14.9073 80.9 15.772 80.5326C16.6222 80.1651 17.6166 80.5686 17.9769 81.426L20.4196 87.1473C20.7871 88.0047 20.3908 88.9991 19.5261 89.3594C19.3099 89.453 19.0865 89.4963 18.8704 89.4963Z" fill="#4D4D4D"/>
<path d="M86.8841 88.9198C84.7224 88.9198 82.5535 88.4947 80.5072 87.63C76.436 85.9223 73.28 82.7446 71.6155 78.6735L74.7427 77.3909C76.0685 80.6334 78.5761 83.1625 81.8114 84.51C85.0467 85.8718 88.6062 85.8862 91.8559 84.5604C92.6846 84.2217 93.4772 83.8038 94.2121 83.3066L96.0928 86.1024C95.1705 86.7293 94.1761 87.2625 93.1313 87.6876C91.1137 88.5019 89.0025 88.9198 86.8841 88.9198Z" fill="#4D4D4D"/>
<path d="M59.6535 155.449H50.3079L79.9444 85.5475C80.3119 84.6901 81.299 84.2938 82.1565 84.6541C83.0211 85.0143 83.4175 86.0087 83.05 86.8662L55.4094 152.069H59.6535C61.8728 152.069 63.8327 150.744 64.6686 148.69L83.295 104.037C83.6552 103.172 84.6424 102.769 85.5071 103.129C86.3645 103.489 86.768 104.477 86.4078 105.334L67.7886 149.973C66.4555 153.287 63.2563 155.449 59.6535 155.449Z" fill="#4D4D4D"/>
<path d="M156.49 155.449H145.567C142.555 155.449 139.759 153.957 138.08 151.464L90.8549 81.3468C90.3361 80.5758 90.5378 79.5238 91.3161 79.005C92.087 78.4862 93.1391 78.6879 93.6651 79.4589L140.883 149.576C141.935 151.14 143.679 152.069 145.567 152.069H150.236L95.6466 69.0324C95.135 68.2542 95.3512 67.2094 96.1294 66.6978C96.9148 66.179 97.9596 66.4024 98.4712 67.1806L156.49 155.449Z" fill="#4D4D4D"/>
</g>
<defs>
<clipPath id="clip0_1_305">
<rect width="170" height="170" fill="white"/>
</clipPath>
</defs>
</svg>
